<svg width="105" height="105" viewBox="0 0 105 105" fill="none" xmlns="http://www.w3.org/2000/svg">
    <circle cx="52.5" cy="52.5" r="52.5" fill="#AAC2B3"/>
    <circle cx="52.5" cy="52.5" r="41.5" fill="#738F81"/>
    <path fill-rule="evenodd" clip-rule="evenodd" d="M48.2966 68.0001H55.7033C60.905 68.0001 63.5066 68.0001 65.375 66.7751C66.1811 66.2467 66.8754 65.5649 67.4183 64.7684C68.6666 62.9351 68.6666 60.3801 68.6666 55.2734C68.6666 50.1651 68.6666 47.6117 67.4183 45.7784C66.8755 44.9819 66.1812 44.3001 65.375 43.7717C64.175 42.9834 62.6716 42.7017 60.37 42.6017C59.2716 42.6017 58.3266 41.7851 58.1116 40.7267C57.9473 39.9515 57.5204 39.2568 56.9031 38.76C56.2857 38.2632 55.5157 37.9948 54.7233 38.0001H49.2766C47.63 38.0001 46.2116 39.1417 45.8883 40.7267C45.6733 41.7851 44.7283 42.6017 43.63 42.6017C41.33 42.7017 39.8266 42.9851 38.625 43.7717C37.8193 44.3002 37.1256 44.982 36.5833 45.7784C35.3333 47.6117 35.3333 50.1651 35.3333 55.2734C35.3333 60.3801 35.3333 62.9334 36.5816 64.7684C37.1216 65.5617 37.815 66.2434 38.625 66.7751C40.4933 68.0001 43.095 68.0001 48.2966 68.0001ZM52 48.4551C48.165 48.4551 45.055 51.5067 45.055 55.2717C45.055 59.0384 48.165 62.0917 52 62.0917C55.835 62.0917 58.945 59.0384 58.945 55.2734C58.945 51.5067 55.835 48.4551 52 48.4551ZM52 51.1817C49.7 51.1817 47.8333 53.0134 47.8333 55.2734C47.8333 57.5317 49.7 59.3634 52 59.3634C54.3 59.3634 56.1666 57.5317 56.1666 55.2734C56.1666 53.0134 54.3 51.1817 52 51.1817ZM59.87 49.8184C59.87 49.0651 60.4916 48.4551 61.26 48.4551H63.11C63.8766 48.4551 64.5 49.0651 64.5 49.8184C64.4965 50.1832 64.3483 50.5318 64.0879 50.7874C63.8276 51.043 63.4765 51.1849 63.1116 51.1817H61.26C61.0792 51.1835 60.8998 51.1496 60.7321 51.0821C60.5644 51.0145 60.4117 50.9146 60.2826 50.788C60.1535 50.6614 60.0507 50.5106 59.9799 50.3442C59.9091 50.1779 59.8717 49.9992 59.87 49.8184Z" fill="white"/>
</svg>