<svg width="35" height="35" viewBox="0 0 35 35" fill="none" xmlns="http://www.w3.org/2000/svg">
    <path d="M10.6653 33.2499C10.4914 33.2497 10.3188 33.2192 10.1553 33.1599C9.84003 33.0444 9.57258 32.8264 9.39583 32.5409C9.21908 32.2553 9.14327 31.9187 9.18053 31.5849L10.3353 20.9499H1.50198C1.22953 20.9503 0.962109 20.8765 0.728447 20.7364C0.494784 20.5962 0.303706 20.3951 0.175733 20.1545C0.0477602 19.9139 -0.0122719 19.643 0.0020836 19.3709C0.0164391 19.0988 0.10464 18.8357 0.257214 18.6099L12.09 0.910021C12.2771 0.633029 12.5514 0.426505 12.8693 0.323237C13.1872 0.219969 13.5305 0.225877 13.8447 0.340023C14.1467 0.452167 14.4045 0.658598 14.5801 0.928755C14.7557 1.19891 14.8396 1.51843 14.8195 1.84002L13.6647 12.55H22.498C22.7705 12.5496 23.0379 12.6234 23.2716 12.7635C23.5052 12.9037 23.6963 13.1048 23.8243 13.3454C23.9522 13.586 24.0123 13.8569 23.9979 14.129C23.9836 14.4011 23.8954 14.6642 23.7428 14.89L11.91 32.5899C11.7724 32.7934 11.587 32.9601 11.3699 33.0752C11.1529 33.1903 10.9109 33.2502 10.6653 33.2499ZM4.30645 17.9499H12C12.2093 17.9504 12.4161 17.9947 12.6073 18.08C12.7984 18.1652 12.9696 18.2896 13.1098 18.4449C13.2513 18.6024 13.3579 18.7881 13.4225 18.9898C13.4871 19.1914 13.5083 19.4045 13.4847 19.6149L12.8098 25.8399L19.6936 15.55H12C11.7884 15.5512 11.5789 15.5077 11.3853 15.4222C11.1916 15.3367 11.0183 15.2113 10.8767 15.054C10.735 14.8967 10.6282 14.7113 10.5634 14.5098C10.4985 14.3083 10.477 14.0954 10.5003 13.885L11.1752 7.65999L4.30645 17.9499Z" fill="#738F81"/>
</svg>