<svg width="105" height="105" viewBox="0 0 111 111" fill="none" xmlns="http://www.w3.org/2000/svg">
<circle cx="55.5" cy="55.5" r="52.5" fill="#AAC2B3"/>
<circle cx="55.5" cy="55.5" r="54" stroke="#ECF4F4" stroke-opacity="0.59" stroke-width="3"/>
<circle cx="55.5" cy="55.5" r="41.5" fill="#ECF4F4"/>
<path d="M70.8443 44.4294C71.5803 42.3933 69.6073 40.4203 67.5712 41.158L42.6865 50.1578C40.6436 50.8972 40.3965 53.6847 42.2758 54.7735L50.2192 59.3722L57.3123 52.279C57.6336 51.9687 58.064 51.7969 58.5108 51.8008C58.9575 51.8047 59.3849 51.9839 59.7008 52.2998C60.0167 52.6157 60.1959 53.0431 60.1998 53.4898C60.2036 53.9365 60.0319 54.3669 59.7215 54.6883L52.6284 61.7814L57.2288 69.7247C58.3159 71.6041 61.1034 71.3553 61.8428 69.3141L70.8443 44.4294Z" fill="#738F81"/>
</svg>
