<svg width="29" height="29" viewBox="0 0 29 29" fill="none" xmlns="http://www.w3.org/2000/svg">
<path d="M10.3333 2H3.38889C3.02053 2 2.66726 2.14633 2.4068 2.4068C2.14633 2.66726 2 3.02053 2 3.38889V10.3333C2 10.7017 2.14633 11.055 2.4068 11.3154C2.66726 11.5759 3.02053 11.7222 3.38889 11.7222H10.3333C10.7017 11.7222 11.055 11.5759 11.3154 11.3154C11.5759 11.055 11.7222 10.7017 11.7222 10.3333V3.38889C11.7222 3.02053 11.5759 2.66726 11.3154 2.4068C11.055 2.14633 10.7017 2 10.3333 2ZM10.3333 17.2778H3.38889C3.02053 17.2778 2.66726 17.4241 2.4068 17.6846C2.14633 17.945 2 18.2983 2 18.6667V25.6111C2 25.9795 2.14633 26.3327 2.4068 26.5932C2.66726 26.8537 3.02053 27 3.38889 27H10.3333C10.7017 27 11.055 26.8537 11.3154 26.5932C11.5759 26.3327 11.7222 25.9795 11.7222 25.6111V18.6667C11.7222 18.2983 11.5759 17.945 11.3154 17.6846C11.055 17.4241 10.7017 17.2778 10.3333 17.2778ZM25.6111 2H18.6667C18.2983 2 17.945 2.14633 17.6846 2.4068C17.4241 2.66726 17.2778 3.02053 17.2778 3.38889V10.3333C17.2778 10.7017 17.4241 11.055 17.6846 11.3154C17.945 11.5759 18.2983 11.7222 18.6667 11.7222H25.6111C25.9795 11.7222 26.3327 11.5759 26.5932 11.3154C26.8537 11.055 27 10.7017 27 10.3333V3.38889C27 3.02053 26.8537 2.66726 26.5932 2.4068C26.3327 2.14633 25.9795 2 25.6111 2ZM25.6111 17.2778H18.6667C18.2983 17.2778 17.945 17.4241 17.6846 17.6846C17.4241 17.945 17.2778 18.2983 17.2778 18.6667V25.6111C17.2778 25.9795 17.4241 26.3327 17.6846 26.5932C17.945 26.8537 18.2983 27 18.6667 27H25.6111C25.9795 27 26.3327 26.8537 26.5932 26.5932C26.8537 26.3327 27 25.9795 27 25.6111V18.6667C27 18.2983 26.8537 17.945 26.5932 17.6846C26.3327 17.4241 25.9795 17.2778 25.6111 17.2778Z" stroke="#AAC2B3" stroke-width="3" stroke-linejoin="round"/>
</svg>
